<svg version="1.1" viewBox="0.0 0.0 477.28871391076115 156.04461942257217" fill="none" stroke="none" stroke-linecap="square" stroke-miterlimit="10" xmlns:xlink="http://www.w3.org/1999/xlink" xmlns="http://www.w3.org/2000/svg"><clipPath id="p.0"><path d="m0 0l477.28873 0l0 156.04462l-477.28873 0l0 -156.04462z" clip-rule="nonzero"/></clipPath><g clip-path="url(#p.0)"><path fill="#000000" fill-opacity="0.0" d="m0 0l477.28873 0l0 156.04462l-477.28873 0z" fill-rule="evenodd"/><path fill="#000000" fill-opacity="0.0" d="m2.8175852 9.045932l471.65353 0l0 137.95276l-471.65353 0z" fill-rule="evenodd"/><path fill="#333333" d="m24.036716 112.682304l0 -56.73437q0 -6.71875 3.9375 -10.84375q3.9375 -4.140625 11.328125 -4.140625q2.875 0 5.5625 0.78125q2.6875 0.765625 4.515625 2.390625l-2.296875 5.09375q-1.453125 -1.25 -3.375 -1.875q-1.90625 -0.625 -4.125 -0.625q-4.3125 0 -6.625 2.40625q-2.296875 2.390625 -2.296875 7.09375l0 7.6875l0.1875 3.1718712l0 45.59375l-6.8125 0zm-9.03125 -44.734375l0 -5.671871l31.203125 0l0 5.671871l-31.203125 0zm40.421875 44.734375l0 -50.406246l6.8125 0l0 50.406246l-6.8125 0zm3.453125 -61.531246q-2.109375 0 -3.546875 -1.4375q-1.4375 -1.453125 -1.4375 -3.46875q0 -2.015625 1.4375 -3.40625q1.4375 -1.390625 3.546875 -1.390625q2.109375 0 3.546875 1.34375q1.453125 1.34375 1.453125 3.359375q0 2.109375 -1.390625 3.5625q-1.390625 1.4375 -3.609375 1.4375zm43.401478 62.01562q-7.5 0 -13.40625 -3.3125q-5.890625 -3.3125 -9.25 -9.125q-3.359375 -5.8125 -3.359375 -13.296875q0 -7.578125 3.359375 -13.34375q3.359375 -5.765625 9.25 -9.015625q5.90625 -3.2656212 13.40625 -3.2656212q6.421875 0 11.609375 2.4999962q5.1875 2.484375 8.15625 7.484375l-5.078125 3.453125q-2.59375 -3.84375 -6.4375 -5.65625q-3.84375 -1.828125 -8.34375 -1.828125q-5.390625 0 -9.71875 2.453125q-4.3125 2.4375 -6.8125 6.859375q-2.484375 4.40625 -2.484375 10.359375q0 5.953125 2.484375 10.375q2.5 4.40625 6.8125 6.859375q4.328125 2.453125 9.71875 2.453125q4.5 0 8.34375 -1.828125q3.84375 -1.828125 6.4375 -5.5625l5.078125 3.453125q-2.96875 4.890625 -8.15625 7.4375q-5.1875 2.546875 -11.609375 2.546875zm49.62397 0q-7.09375 0 -10.9375 -3.84375q-3.84375 -3.84375 -3.84375 -10.84375l0 -47.32812l6.8125 0l0 46.937496q0 4.421875 2.25 6.828125q2.265625 2.390625 6.484375 2.390625q4.515625 0 7.5 -2.59375l2.390625 4.890625q-2.015625 1.828125 -4.84375 2.703125q-2.828125 0.859375 -5.8125 0.859375zm-23.8125 -45.21875l0 -5.671871l31.203125 0l0 5.671871l-31.203125 0zm46.850983 44.734375l0 -50.406246l6.8125 0l0 50.406246l-6.8125 0zm3.453125 -61.531246q-2.109375 0 -3.546875 -1.4375q-1.4375 -1.453125 -1.4375 -3.46875q0 -2.015625 1.4375 -3.40625q1.4375 -1.390625 3.546875 -1.390625q2.109375 0 3.546875 1.34375q1.453125 1.34375 1.453125 3.359375q0 2.109375 -1.390625 3.5625q-1.390625 1.4375 -3.609375 1.4375zm42.91774 62.01562q-7.296875 0 -13.109375 -3.3125q-5.796875 -3.3125 -9.15625 -9.125q-3.359375 -5.8125 -3.359375 -13.296875q0 -7.578125 3.359375 -13.34375q3.359375 -5.765625 9.109375 -9.015625q5.765625 -3.2656212 13.15625 -3.2656212q7.484375 0 13.296875 3.2656212q5.8125 3.25 9.125 9.015625q3.3125 5.765625 3.3125 13.34375q0 7.484375 -3.3125 13.296875q-3.3125 5.8125 -9.171875 9.125q-5.859375 3.3125 -13.25 3.3125zm0 -6.046875q5.46875 0 9.6875 -2.453125q4.234375 -2.453125 6.671875 -6.90625q2.453125 -4.46875 2.453125 -10.328125q0 -5.953125 -2.453125 -10.359375q-2.4375 -4.421875 -6.671875 -6.859375q-4.21875 -2.453125 -9.59375 -2.453125q-5.375 0 -9.609375 2.453125q-4.21875 2.4375 -6.71875 6.859375q-2.484375 4.40625 -2.484375 10.359375q0 5.859375 2.484375 10.328125q2.5 4.453125 6.71875 6.90625q4.234375 2.453125 9.515625 2.453125zm65.37947 -45.312496q6.140625 0 10.796875 2.3593712q4.65625 2.34375 7.296875 7.140625q2.640625 4.796875 2.640625 12.09375l0 29.28125l-6.8125 0l0 -28.609375q0 -7.96875 -3.984375 -12.046875q-3.984375 -4.078125 -11.1875 -4.078125q-5.375 0 -9.359375 2.15625q-3.984375 2.15625 -6.15625 6.25q-2.15625 4.078125 -2.15625 9.828125l0 26.5l-6.8125 0l0 -50.406246l6.53125 0l0 13.828121l-1.0625 -2.59375q2.40625 -5.46875 7.6875 -8.578125q5.28125 -3.1249962 12.578125 -3.1249962zm39.16162 50.874996l0 -71.234375l6.8125 0l0 71.234375l-6.8125 0zm57.417725 0l0 -11.140625l-0.296875 -1.8125l0 -18.625q0 -6.4375 -3.609375 -9.890625q-3.59375 -3.453125 -10.6875 -3.453125q-4.90625 0 -9.328125 1.640625q-4.40625 1.625 -7.46875 4.3125l-3.078125 -5.09375q3.84375 -3.265625 9.21875 -5.031246q5.375 -1.78125 11.328125 -1.78125q9.78125 0 15.109375 4.843746q5.328125 4.84375 5.328125 14.734375l0 31.296875l-6.515625 0zm-17.375 0.484375q-5.671875 0 -9.84375 -1.875q-4.171875 -1.875 -6.390625 -5.1875q-2.203125 -3.3125 -2.203125 -7.625q0 -3.9375 1.875 -7.15625q1.875 -3.21875 6.140625 -5.1875q4.265625 -1.96875 11.46875 -1.96875l17.375 0l0 5.09375l-17.1875 0q-7.296875 0 -10.125 2.59375q-2.828125 2.59375 -2.828125 6.421875q0 4.328125 3.359375 6.921875q3.359375 2.59375 9.40625 2.59375q5.765625 0 9.9375 -2.640625q4.171875 -2.640625 6.09375 -7.640625l1.546875 4.703125q-1.921875 5.0 -6.6875 7.984375q-4.75 2.96875 -11.9375 2.96875zm68.43683 0q-6.625 0 -11.90625 -3.015625q-5.265625 -3.03125 -8.34375 -8.796875q-3.078125 -5.765625 -3.078125 -13.921875q0 -8.25 3.125 -13.953125q3.125 -5.71875 8.390625 -8.6875q5.28125 -2.9843712 11.8125 -2.9843712q7.203125 0 12.90625 3.2187462q5.71875 3.203125 8.984375 8.96875q3.265625 5.765625 3.265625 13.4375q0 7.59375 -3.265625 13.40625q-3.265625 5.796875 -8.984375 9.0625q-5.703125 3.265625 -12.90625 3.265625zm-26.015625 -0.484375l0 -71.234375l6.8125 0l0 35.718746l-0.953125 10.171875l0.671875 10.171875l0 15.171875l-6.53125 0zm25.546875 -5.5625q5.375 0 9.59375 -2.453125q4.21875 -2.453125 6.71875 -6.90625q2.5 -4.46875 2.5 -10.328125q0 -5.953125 -2.5 -10.359375q-2.5 -4.421875 -6.71875 -6.859375q-4.21875 -2.453125 -9.59375 -2.453125q-5.390625 0 -9.65625 2.453125q-4.265625 2.4375 -6.71875 6.859375q-2.453125 4.40625 -2.453125 10.359375q0 5.859375 2.453125 10.328125q2.453125 4.453125 6.71875 6.90625q4.265625 2.453125 9.65625 2.453125z" fill-rule="nonzero"/></g></svg>