<?xml version="1.0" encoding="UTF-8" standalone="no"?>
<svg
   width="100%"
   height="100%"
   viewBox="0 0 591 591"
   version="1.1"
   xml:space="preserve"
   style="fill-rule:evenodd;clip-rule:evenodd;stroke-linejoin:round;stroke-miterlimit:2;"
   id="svg10"
   sodipodi:docname="lidar.svg"
   inkscape:version="1.3.2 (091e20e, 2023-11-25, custom)"
   xmlns:inkscape="http://www.inkscape.org/namespaces/inkscape"
   xmlns:sodipodi="http://sodipodi.sourceforge.net/DTD/sodipodi-0.dtd"
   xmlns="http://www.w3.org/2000/svg"
   xmlns:svg="http://www.w3.org/2000/svg"><defs
   id="defs10" /><sodipodi:namedview
   id="namedview10"
   pagecolor="#ffffff"
   bordercolor="#000000"
   borderopacity="0.25"
   inkscape:showpageshadow="2"
   inkscape:pageopacity="0.0"
   inkscape:pagecheckerboard="0"
   inkscape:deskcolor="#d1d1d1"
   inkscape:zoom="1.3756345"
   inkscape:cx="295.13653"
   inkscape:cy="295.5"
   inkscape:current-layer="svg10" />
    <g
   transform="matrix(1,0,0,1,-4203,0)"
   id="g10">
        <g
   id="lidar"
   transform="matrix(1,0,0,1,4203.42,0)">
            
            <g
   transform="matrix(2.17172,0,0,1.40476,-4057.17,-1571.11)"
   id="g9">
                <g
   transform="matrix(0.403122,-0.0886508,-0.0573432,0.623214,879.679,-5252.95)"
   id="g1">
                    <path
   d="M4243.5,11056.2C4239.71,11052.5 4238.94,11047.1 4241.79,11044.2C4244.63,11041.4 4250.02,11042.1 4253.81,11045.9L4294.67,11086.8C4298.46,11090.6 4299.22,11096 4296.38,11098.8C4293.53,11101.7 4288.15,11100.9 4284.36,11097.1L4243.5,11056.2Z"
   style="fill:currentColor;"
   id="path1" />
                </g>
                <g
   transform="matrix(0.403122,0.0886508,-0.0573432,-0.623214,879.679,7909.69)"
   id="g2">
                    <path
   d="M4253.81,11045.9C4250.02,11042.1 4244.63,11041.4 4241.79,11044.2C4238.94,11047.1 4239.71,11052.5 4243.5,11056.2L4284.36,11097.1C4288.15,11100.9 4293.53,11101.7 4296.38,11098.8C4299.22,11096 4298.46,11090.6 4294.67,11086.8L4253.81,11045.9Z"
   style="fill:currentColor;"
   id="path2" />
                </g>
                <g
   transform="matrix(-0.403122,-0.0886508,0.0573432,0.623214,3129.23,-5252.95)"
   id="g3">
                    <path
   d="M4253.81,11045.9C4250.02,11042.1 4244.63,11041.4 4241.79,11044.2C4238.94,11047.1 4239.71,11052.5 4243.5,11056.2L4284.36,11097.1C4288.15,11100.9 4293.53,11101.7 4296.38,11098.8C4299.22,11096 4298.46,11090.6 4294.67,11086.8L4253.81,11045.9Z"
   style="fill:currentColor;"
   id="path3" />
                </g>
                <g
   transform="matrix(-0.403122,0.0886508,0.0573432,-0.623214,3129.23,7909.69)"
   id="g4">
                    <path
   d="M4243.5,11056.2C4239.71,11052.5 4238.94,11047.1 4241.79,11044.2C4244.63,11041.4 4250.02,11042.1 4253.81,11045.9L4294.67,11086.8C4298.46,11090.6 4299.22,11096 4296.38,11098.8C4293.53,11101.7 4288.15,11100.9 4284.36,11097.1L4243.5,11056.2Z"
   style="fill:currentColor;"
   id="path4" />
                </g>
                <g
   transform="matrix(0.550979,0,0,0.851797,-407.906,-8169.68)"
   id="g5">
                    <path
   d="M4353.71,11156.5L4238.43,11156.5C4235.06,11156.5 4232.33,11153.8 4232.33,11150.4C4232.33,11147.1 4235.06,11144.3 4238.43,11144.3L4353.76,11144.3C4356.52,11133.4 4366.47,11125.2 4378.29,11125.2C4392.25,11125.2 4403.59,11136.6 4403.59,11150.5C4403.59,11164.5 4392.25,11175.8 4378.29,11175.8C4366.4,11175.8 4356.41,11167.6 4353.71,11156.5Z"
   style="fill:currentColor;"
   id="path5" />
                </g>
                <g
   transform="matrix(-8.45861e-17,0.353583,-0.460465,-6.49521e-17,7141.05,-269.632)"
   id="g6">
                    <path
   d="M4185.72,11162.7C4177.62,11162.7 4171.04,11159.4 4171.04,11155.4C4171.04,11151.4 4177.62,11148.1 4185.72,11148.1L4327.08,11148.1C4335.18,11148.1 4341.76,11151.4 4341.76,11155.4C4341.76,11159.4 4335.18,11162.7 4327.08,11162.7L4185.72,11162.7Z"
   style="fill:currentColor;"
   id="path6" />
                </g>
                <g
   transform="matrix(-8.45861e-17,0.353583,-0.460465,-6.49521e-17,7141.05,-83.1233)"
   id="g7">
                    <path
   d="M4185.72,11162.7C4177.62,11162.7 4171.04,11159.4 4171.04,11155.4C4171.04,11151.4 4177.62,11148.1 4185.72,11148.1L4327.08,11148.1C4335.18,11148.1 4341.76,11151.4 4341.76,11155.4C4341.76,11159.4 4335.18,11162.7 4327.08,11162.7L4185.72,11162.7Z"
   style="fill:currentColor;"
   id="path7" />
                </g>
                <g
   transform="matrix(0.228713,1.52418e-16,-7.02092e-17,0.711864,1091.26,-6613.23)"
   id="g8">
                    <path
   d="M4185.72,11162.7C4177.62,11162.7 4171.04,11159.4 4171.04,11155.4C4171.04,11151.4 4177.62,11148.1 4185.72,11148.1L4327.08,11148.1C4335.18,11148.1 4341.76,11151.4 4341.76,11155.4C4341.76,11159.4 4335.18,11162.7 4327.08,11162.7L4185.72,11162.7Z"
   style="fill:currentColor;"
   id="path8" />
                </g>
            </g>
        </g>
    </g>
</svg>
